<?xml version="1.0" standalone="no"?>
<!DOCTYPE svg PUBLIC "-//W3C//DTD SVG 20010904//EN"
 "http://www.w3.org/TR/2001/REC-SVG-20010904/DTD/svg10.dtd">
<svg version="1.0" xmlns="http://www.w3.org/2000/svg"
 width="150.000000pt" height="150.000000pt" viewBox="0 0 150.000000 150.000000"
 preserveAspectRatio="xMidYMid meet">
<metadata>
Created by potrace 1.15, written by Peter Selinger 2001-2017
</metadata>
<g transform="translate(0.000000,150.000000) scale(0.100000,-0.100000)"
fill="#000000" stroke="none">
<path d="M58 1484 c-60 -32 -58 -12 -58 -731 0 -708 -1 -687 53 -727 28 -21
34 -21 697 -21 663 0 669 0 697 21 54 40 53 19 53 727 0 722 2 700 -60 732
-43 22 -1341 22 -1382 -1z m344 -544 c40 -60 75 -110 78 -110 3 0 38 50 78
110 l72 110 60 0 60 0 0 -280 0 -280 -60 0 -60 0 0 173 0 172 -70 -105 c-38
-58 -73 -106 -77 -107 -5 -2 -39 45 -78 104 l-70 107 -3 -172 -2 -172 -55 0
-55 0 0 280 0 280 55 0 55 0 72 -110z m720 78 c160 -95 196 -297 76 -433 -24
-27 -64 -58 -93 -71 -44 -21 -65 -24 -182 -24 l-133 0 0 60 0 60 124 0 c111 0
126 2 156 23 95 63 98 203 7 271 -25 18 -45 21 -158 24 l-129 4 0 60 0 60 143
-4 c134 -3 145 -5 189 -30z"/>
</g>
</svg>
